<svg width="34" height="34" viewBox="0 0 34 34" fill="none" xmlns="http://www.w3.org/2000/svg">
<rect width="34" height="34" rx="3" fill="#004289"/>
<path d="M24.708 12.292C24.8012 12.3848 24.8751 12.4952 24.9255 12.6167C24.9759 12.7382 25.0018 12.8684 25.0018 13C25.0018 13.1315 24.9759 13.2617 24.9255 13.3832C24.8751 13.5047 24.8012 13.6151 24.708 13.708L15.708 22.708C15.6152 22.8011 15.5048 22.875 15.3833 22.9254C15.2618 22.9758 15.1316 23.0017 15 23.0017C14.8685 23.0017 14.7383 22.9758 14.6168 22.9254C14.4953 22.875 14.3849 22.8011 14.292 22.708L10.292 18.708C10.1043 18.5202 9.99878 18.2655 9.99878 18C9.99878 17.7344 10.1043 17.4797 10.292 17.292C10.4798 17.1042 10.7345 16.9987 11 16.9987C11.2656 16.9987 11.5203 17.1042 11.708 17.292L15 20.586L23.292 12.292C23.3849 12.1988 23.4953 12.1249 23.6168 12.0745C23.7383 12.0241 23.8685 11.9982 24 11.9982C24.1316 11.9982 24.2618 12.0241 24.3833 12.0745C24.5048 12.1249 24.6152 12.1988 24.708 12.292Z" fill="white"/>
</svg>
